Coordinates
version=1
nRows=15
nColumns=27
inDegrees=yes

Units are S.I. units (second, meters, Newtons, ...)
If the header above contains a line with 'inDegrees', this indicates whether rotational values are in degrees (yes) or radians (no).

endheader
time	pelvis_rotation	pelvis_tilt	pelvis_list	pelvis_tx	pelvis_ty	pelvis_tz	hip_flexion_r	hip_adduction_r	hip_rotation_r	knee_angle_r	knee_rotation_r	knee_adduction_r	knee_angle_r_beta	ankle_angle_r	subtalar_angle_r	mtp_angle_r	hip_flexion_l	hip_adduction_l	hip_rotation_l	knee_angle_l	knee_rotation_l	knee_adduction_l	knee_angle_l_beta	ankle_angle_l	subtalar_angle_l	mtp_angle_l
      3.72000000	      6.12641471	    -41.29695347	      5.04605430	     -0.03127281	      0.61641832	     -1.11544340	    110.25365359	    -46.02542883	      2.09420351	     81.04289779	      0.00000000	      0.00000000	      1.41446540	      4.83354530	      0.00000000	      0.00000000	    105.08215286	    -36.82814040	     -1.72092083	     73.73788822	      0.00000000	      0.00000000	      1.28696893	     -3.23664023	      0.00000000	      0.00000000
      3.72500000	      6.15220915	    -41.28466161	      5.09078891	     -0.03126227	      0.61467516	     -1.11543353	    110.62137075	    -46.06256458	      2.41807974	     81.34917849	      0.00000000	      0.00000000	      1.41981101	      4.91565397	      0.00000000	      0.00000000	    105.35300788	    -36.92754390	     -1.62568311	     74.04286169	      0.00000000	      0.00000000	      1.29229172	     -3.22508578	      0.00000000	      0.00000000
      3.73000000	      6.17147977	    -41.26317572	      5.04640794	     -0.03111713	      0.61296379	     -1.11542033	    110.86693111	    -46.15580791	      2.57447520	     81.64228085	      0.00000000	      0.00000000	      1.42492661	      5.03279179	      0.00000000	      0.00000000	    105.67468502	    -37.01345240	     -1.43104739	     74.35673791	      0.00000000	      0.00000000	      1.29776990	     -3.16724558	      0.00000000	      0.00000000
      3.73500000	      6.18807043	    -41.29671558	      4.82135534	     -0.03103400	      0.61141720	     -1.11537903	    110.90576392	    -46.29408428	      2.42927747	     81.87130349	      0.00000000	      0.00000000	      1.42892381	      5.12743465	      0.00000000	      0.00000000	    106.20092607	    -37.02738422	     -0.98138495	     74.65041961	      0.00000000	      0.00000000	      1.30289561	     -3.15806545	      0.00000000	      0.00000000
      3.74000000	      6.21454995	    -41.21239794	      5.06212976	     -0.03089905	      0.60950517	     -1.11534200	    111.47725815	    -46.26303147	      3.09045871	     82.24450850	      0.00000000	      0.00000000	      1.43543747	      5.24145286	      0.00000000	      0.00000000	    106.23312322	    -37.20641183	     -1.16377053	     74.96414550	      0.00000000	      0.00000000	      1.30837116	     -3.10876431	      0.00000000	      0.00000000
      3.74500000	      6.10910193	    -41.30067295	      4.59219867	     -0.03080784	      0.60786171	     -1.11520679	    111.32517596	    -46.35264246	      2.65123985	     82.46707406	      0.00000000	      0.00000000	      1.43932197	      5.45286568	      0.00000000	      0.00000000	    107.03129058	    -37.28627806	     -0.43308137	     75.32258346	      0.00000000	      0.00000000	      1.31462708	     -3.17954145	      0.00000000	      0.00000000
      3.75000000	      6.33702074	    -41.14933128	      5.01097210	     -0.03060538	      0.60598203	     -1.11518425	    111.98697628	    -46.48818171	      3.46902127	     82.86121118	      0.00000000	      0.00000000	      1.44620096	      5.42044699	      0.00000000	      0.00000000	    106.88833512	    -37.30156428	     -0.73732371	     75.58564657	      0.00000000	      0.00000000	      1.31921840	     -3.04530656	      0.00000000	      0.00000000
      3.75500000	      6.31995752	    -41.14291038	      4.95499370	     -0.03046430	      0.60425160	     -1.11507559	    112.24093294	    -46.51155455	      3.65294380	     83.15584420	      0.00000000	      0.00000000	      1.45134327	      5.58303738	      0.00000000	      0.00000000	    107.23645120	    -37.42579712	     -0.53442237	     75.89244729	      0.00000000	      0.00000000	      1.32457308	     -3.08757201	      0.00000000	      0.00000000
      3.76000000	      6.31521810	    -41.03403235	      5.02650283	     -0.03026811	      0.60238672	     -1.11494211	    112.57855568	    -46.50900787	      4.04865847	     83.50299154	      0.00000000	      0.00000000	      1.45740214	      5.70362180	      0.00000000	      0.00000000	    107.37759713	    -37.58018261	     -0.48474642	     76.20757957	      0.00000000	      0.00000000	      1.33007318	     -3.04736527	      0.00000000	      0.00000000
      3.76500000	      6.35341750	    -41.05774275	      5.02580139	     -0.03010214	      0.60076156	     -1.11480226	    112.89167894	    -46.56008644	      4.28032103	     83.78799782	      0.00000000	      0.00000000	      1.46237644	      5.80464481	      0.00000000	      0.00000000	    107.69673083	    -37.65912506	     -0.33861422	     76.47236529	      0.00000000	      0.00000000	      1.33469456	     -3.04349579	      0.00000000	      0.00000000
      3.77000000	      6.45202443	    -41.00634500	      4.88708448	     -0.02988902	      0.59905949	     -1.11466140	    112.96094788	    -46.76237854	      4.26506578	     84.07419469	      0.00000000	      0.00000000	      1.46737151	      5.93057690	      0.00000000	      0.00000000	    108.11353026	    -37.62182856	      0.05249123	     76.77346883	      0.00000000	      0.00000000	      1.33994981	     -3.02481452	      0.00000000	      0.00000000
      3.77500000	      6.47267561	    -41.00836646	      4.96997079	     -0.02971519	      0.59733113	     -1.11448793	    113.38384542	    -46.74885308	      4.65386238	     84.39434278	      0.00000000	      0.00000000	      1.47295915	      6.06582120	      0.00000000	      0.00000000	    108.35049848	    -37.75792844	      0.09186293	     77.05123161	      0.00000000	      0.00000000	      1.34479768	     -3.03884273	      0.00000000	      0.00000000
      3.78000000	      6.48205124	    -40.96452802	      4.97459371	     -0.02948149	      0.59561357	     -1.11429230	    113.66128558	    -46.77324270	      4.91470426	     84.70713737	      0.00000000	      0.00000000	      1.47841845	      6.20322784	      0.00000000	      0.00000000	    108.60232671	    -37.88585768	      0.22157688	     77.33693201	      0.00000000	      0.00000000	      1.34978410	     -3.03833687	      0.00000000	      0.00000000
      3.78500000	      6.49731194	    -40.91379951	      4.99792576	     -0.02928029	      0.59389919	     -1.11408636	    113.95846328	    -46.79000363	      5.21183951	     85.01851739	      0.00000000	      0.00000000	      1.48385305	      6.33450241	      0.00000000	      0.00000000	    108.82592494	    -38.00038359	      0.33132607	     77.60873866	      0.00000000	      0.00000000	      1.35452802	     -3.03984064	      0.00000000	      0.00000000
      3.79000000	      6.53529785	    -40.86687928	      5.00563798	     -0.02906304	      0.59218466	     -1.11387633	    114.22697271	    -46.83720849	      5.46821817	     85.32635816	      0.00000000	      0.00000000	      1.48922589	      6.45259225	      0.00000000	      0.00000000	    109.08200555	    -38.09133719	      0.47686933	     77.88250637	      0.00000000	      0.00000000	      1.35930617	     -3.02329248	      0.00000000	      0.00000000
